PathFileType	4	(X/Y/Z)	F:\MotionCapture\20160217\3\Generated_files\P_3_test01-Dynamic.trc
DataRate	CameraRate	NumFrames	NumMarkers	Units	OrigDataRate	OrigDataStartFrame	OrigNumFrames
120.00	120.00	      7	39	mm	120.00	2063	      2357
Frame#	Time	Top.Head			Front.Head			Rear.Head			R.Shoulder			R.Offset			R.Elbow			R.Wrist			L.Shoulder			L.Elbow			L.Wrist			R.ASIS			L.ASIS			V.Sacral			R.Thigh			R.Knee			R.Shank			R.Ankle			R.Heel			R.Toe			L.Thigh			L.Knee			L.Shank			L.Ankle			L.Heel			L.Toe			R1			R2			R3			R4			R5			R6			R7			L1			L2			L3			L4			L5			L6			L7			V_Mid_ASIS			V_Pelvis_Origin			V_R.Hip_JC			V_L.Hip_JC			V_R.Knee_JC			V_L.Knee_JC			V_R.Ankle_JC			V_L.Ankle_JC			V_Mid_Hip			V_Mid_Shoulder			V_R.Hand			V_L.Hand			V_R.Toe_Offset_Static			V_L.Toe_Offset_Static			V_R.Toe_Offset			V_L.Toe_Offset			
		X1	Y1	Z1	X2	Y2	Z2	X3	Y3	Z3	X4	Y4	Z4	X5	Y5	Z5	X6	Y6	Z6	X7	Y7	Z7	X8	Y8	Z8	X9	Y9	Z9	X10	Y10	Z10	X11	Y11	Z11	X12	Y12	Z12	X13	Y13	Z13	X14	Y14	Z14	X15	Y15	Z15	X16	Y16	Z16	X17	Y17	Z17	X18	Y18	Z18	X19	Y19	Z19	X20	Y20	Z20	X21	Y21	Z21	X22	Y22	Z22	X23	Y23	Z23	X24	Y24	Z24	X25	Y25	Z25	X26	Y26	Z26	X27	Y27	Z27	X28	Y28	Z28	X29	Y29	Z29	X30	Y30	Z30	X31	Y31	Z31	X32	Y32	Z32	X33	Y33	Z33	X34	Y34	Z34	X35	Y35	Z35	X36	Y36	Z36	X37	Y37	Z37	X38	Y38	Z38	X39	Y39	Z39	

2063	17.183	-60.45128	-49.45267	1526.10608	-84.34180	-51.43115	1388.42065	-167.32164	-17.78471	1590.48242	-331.29700	-190.91058	1394.25037	-502.97806	80.40137	1309.50403	-337.63498	-306.34015	1077.80737	-94.44590	-261.50879	1004.66785	-302.13376	199.59981	1411.27905	-351.65750	337.97662	1107.67065	-138.44807	271.83899	985.90070	-384.47736	-127.40994	938.32965	-361.38153	159.60072	938.19757	-596.12396	37.97901	950.00793	-315.01633	-102.67851	584.72577				-355.66391	-91.87859	235.79475	-405.30423	-169.57961	71.53977	-464.44339	-102.64328	37.99392	-258.76819	-162.29970	41.74808	-293.26279	121.07336	635.59723	-352.26031	181.26923	468.29382	-337.08932	106.81671	325.65009	-405.31793	176.00354	60.04094	-468.91367	116.86439	39.68797	-265.78894	174.79056	40.94078	-211.98480	-143.72269	36.51067	-250.34781	-127.00542	48.12100	-346.91360	-84.09720	55.89660	-421.62943	-76.47939	40.90338	-438.72333	-149.51299	39.20119	-365.21817	-182.02139	34.98903	-298.91150	-201.18434	35.34136	-220.45949	149.11293	33.84089	-253.44946	137.32196	46.04826	-347.90591	89.76611	49.27476	-429.10236	86.32126	40.37798	-443.03143	157.02298	39.44564	-370.96887	189.84840	32.67508	-308.03729	205.58539	37.41235																																																	-26.19970	-384.18347	7.79908	
2064	17.192	-61.28753	-49.49851	1526.56848	-84.87331	-51.14124	1388.89819	-168.22644	-17.86460	1590.94080	-331.79895	-190.10068	1394.34094	-503.69586	80.59164	1309.63000	-333.97702	-307.54709	1079.42578	-88.96308	-260.54419	1012.38593	-302.35815	199.63741	1411.71313	-348.08496	338.80020	1107.85315	-133.00098	270.20273	992.43176	-384.33820	-127.28164	938.43469	-362.51712	160.83330	938.04199	-595.93042	38.10290	950.30499	-315.42883	-102.44567	584.60919				-355.74304	-91.87743	235.78876	-405.35193	-169.54251	71.55151	-464.39996	-102.68633	38.05849	-258.78485	-162.29846	41.68610	-293.42288	121.26890	635.61340	-353.28998	181.37740	468.35828	-337.73734	106.88493	325.72369	-405.30399	176.00441	60.09216	-468.86292	116.91090	39.69885	-265.75571	174.81099	40.87151	-211.38181	-143.60313	36.94318	-249.48148	-126.65589	48.49268	-346.86636	-84.10802	55.82468	-421.67105	-76.51723	40.93394	-438.74457	-149.56274	39.19543	-365.20206	-182.06557	34.99177	-298.91428	-201.27762	35.26140	-220.29262	148.96959	33.65855	-253.42776	137.28520	45.99709	-347.85287	89.73206	49.18456	-429.07166	86.31302	40.39208	-443.00299	156.99481	39.47210	-370.97223	189.84431	32.68173	-308.03458	205.58058	37.35935																																																	-26.71145	-384.39548	7.84395	
2065	17.200	-61.76732	-49.47900	1526.86243	-85.73444	-51.01932	1389.58948	-169.14693	-17.98951	1591.66150	-332.67291	-189.99539	1394.90283	-504.04959	80.71932	1309.64648	-329.83701	-308.69504	1080.85840	-84.15209	-259.92273	1019.24982	-303.08307	199.85860	1412.23022	-344.90463	339.04861	1108.28369	-127.15251	267.99918	998.90332	-384.35294	-127.33304	938.60278	-361.58087	160.33339	939.09210	-595.75983	38.16291	950.44525	-315.44067	-102.51180	584.65430				-355.91321	-91.89799	235.82542	-405.24335	-169.61697	71.55838	-464.37473	-102.69957	38.13003	-258.64386	-162.31696	41.60066	-293.81680	121.70576	635.36401	-353.80823	181.48769	468.30786	-338.07831	107.03503	325.93509	-405.15237	175.90672	60.12140	-468.83075	116.80910	39.71651	-265.71472	174.79936	40.85452	-211.97087	-143.67523	36.47397	-250.27010	-126.89991	47.91426	-346.79822	-84.19461	55.79941	-421.61749	-76.50906	40.95568	-438.65558	-149.51311	39.27040	-365.19226	-182.02390	35.02214	-298.88870	-201.37502	35.26968	-220.17699	148.85889	33.62061	-253.38719	137.21039	45.98786	-347.81873	89.70552	49.15510	-429.01126	86.30201	40.35964	-443.01102	157.00616	39.54521	-370.98505	189.86433	32.66780	-308.08295	205.64195	37.40608																																																	-27.17062	-384.53079	8.03850	
2066	17.208	-62.94706	-49.17595	1527.57373	-86.01582	-51.04481	1390.20288	-169.84586	-17.94329	1592.28650	-333.23279	-189.80412	1395.51184	-504.45609	80.85079	1309.51929	-326.20111	-309.91321	1082.44263	-79.92007	-259.64496	1025.69202	-303.92175	200.08145	1412.73926	-342.37970	339.92776	1108.64709	-122.74166	266.39566	1004.94788	-383.90149	-127.07644	939.03992	-361.53278	160.48532	939.52655	-595.54010	38.14886	950.51471	-315.61002	-102.47843	584.63635				-355.91873	-91.93209	235.85136	-405.16028	-169.64383	71.60628	-464.30942	-102.73232	38.16269	-258.59598	-162.28282	41.49439	-293.87180	122.18343	635.26013	-354.46957	181.63013	468.33313	-338.26001	107.20628	326.20807	-405.25558	176.04590	60.14070	-468.83621	116.79819	39.71915	-265.71835	174.82408	40.83286	-211.23253	-143.45015	36.80996	-249.30463	-126.56073	48.27575	-346.71744	-84.13992	55.78921	-421.55963	-76.49387	40.95164	-438.44464	-149.46288	39.29604	-365.14523	-182.02939	34.97837	-298.85953	-201.49280	35.21525	-220.23137	148.88333	33.61659	-253.38911	137.22220	45.96733	-347.79138	89.68816	49.08612	-429.05768	86.30454	40.40685	-443.00681	156.98659	39.53961	-370.99982	189.87059	32.69146	-308.14331	205.71356	37.44855																																																	-27.34715	-384.72491	8.13774	
2067	17.217	-64.09793	-49.04601	1528.71216	-87.19949	-50.69325	1391.12451	-171.22337	-17.95822	1592.97168	-333.41385	-189.55890	1395.75635	-504.88956	80.92788	1309.58301	-323.10861	-311.01892	1083.71118	-75.74894	-259.28729	1031.13232	-304.83893	200.25066	1413.25342	-338.73700	340.21497	1108.87646	-118.07375	264.98862	1010.15436	-383.34064	-126.85807	939.23285	-361.43893	160.56927	939.64484	-595.44177	38.12234	950.54266	-315.70184	-102.46751	584.58539				-356.01309	-91.90019	235.88315	-405.15759	-169.64745	71.61863	-464.20972	-102.72882	38.14911	-258.33347	-162.27151	41.36969	-294.05029	122.36536	635.09857	-355.00122	181.79225	468.40894	-338.57584	107.49966	326.24457	-405.26102	175.92043	60.07111	-468.87009	116.77472	39.68121	-265.69473	174.82596	40.83707	-211.19608	-143.36893	36.72358	-249.32866	-126.51623	48.23241	-346.66690	-84.17225	55.72157	-421.51022	-76.52041	40.96175	-438.43417	-149.49605	39.21223	-365.14658	-182.04280	34.94529	-298.79184	-201.61398	35.14599	-220.26981	148.92105	33.63658	-253.41739	137.30054	45.95722	-347.86017	89.73363	49.08986	-429.07202	86.26402	40.44882	-443.07446	156.96280	39.53190	-370.96182	189.83475	32.68304	-308.15207	205.76691	37.44766																																																	-27.70535	-384.99503	8.17580	
2068	17.225	-65.38979	-49.17304	1529.60950	-87.84429	-50.63838	1391.84155	-172.19962	-18.12826	1593.92224	-334.28082	-189.75642	1396.53674	-505.42303	80.93974	1309.56226	-319.83536	-311.85287	1085.12695	-72.28121	-259.45065	1036.24622	-305.41104	200.02599	1413.92529	-336.93170	340.29611	1109.34448	-113.85475	263.65918	1014.90723	-382.92010	-126.74329	939.48761	-361.15042	160.83986	939.77637	-595.26532	38.07619	950.57910	-315.70804	-102.51556	584.57141				-356.16223	-91.82500	235.92099	-405.10559	-169.62021	71.62302	-464.21106	-102.76402	38.14064	-258.20770	-162.23753	41.20397	-294.13672	122.69778	634.91125	-355.50577	181.88197	468.46011	-339.06668	107.90875	326.21436	-405.46121	175.97871	60.15596	-468.82816	116.76098	39.76307	-265.74811	174.83073	40.80902	-211.81918	-143.39040	36.17440	-250.15234	-126.69386	47.56590	-346.60959	-84.13426	55.64447	-421.52457	-76.52746	40.97407	-438.39288	-149.46829	39.29902	-365.15994	-182.01036	34.95917	-298.86270	-201.74649	35.10616	-220.25116	148.83923	33.57742	-253.45052	137.24417	45.95421	-347.88565	89.72135	49.19950	-429.05591	86.28926	40.46831	-443.11765	157.02841	39.53863	-370.99057	189.85478	32.70335	-308.19653	205.76619	37.45117																																																	-27.84804	-385.80930	8.05614	
2069	17.233	-65.77544	-49.15535	1530.62451	-88.45941	-50.61151	1393.07544	-173.19402	-17.93624	1594.90540	-334.68469	-189.45708	1396.58435	-506.02304	80.93577	1309.55432	-316.60873	-312.67960	1086.30347	-68.74588	-259.41202	1040.81799	-306.02014	200.13016	1414.29907	-333.10428	340.77164	1109.39636	-110.00331	262.73880	1019.21729	-382.18790	-126.60026	939.73322	-360.74234	160.95389	939.90430	-595.05402	37.97642	950.57275	-315.72919	-102.57844	584.44318				-356.31619	-91.75249	235.99672	-405.09045	-169.60594	71.65234	-464.17856	-102.76702	38.20328	-258.00226	-162.17503	41.08721	-294.10181	123.00779	634.75269	-356.14450	182.10472	468.57309	-339.22015	108.00202	326.24435	-405.38556	175.95366	60.15870	-468.84772	116.70990	39.75581	-265.70715	174.84154	40.73881	-211.11676	-143.02493	36.52705	-249.20753	-126.35494	48.01085	-346.62082	-84.11482	55.58859	-421.45010	-76.48165	40.99545	-438.29031	-149.41708	39.33258	-365.11414	-182.00848	35.03249	-298.83426	-201.80701	35.14347	-220.25317	148.81841	33.51871	-253.50641	137.18262	45.89456	-347.86090	89.71356	49.15771	-429.07132	86.28397	40.46734	-443.05585	157.03133	39.53628	-371.01794	189.88060	32.68508	-308.13840	205.87602	37.46096																																																	-28.76439	-385.43234	8.30362	
